# xmcd
#
# Track frame offsets:
#	150
#	13780
#	26375
#	39015
#	60066
#	76956
#	88911
#	103914
#	115833
#	133691
#	147905
#	162452
#	175741
#	187829
#	201811
#
# Disc length: 2865 seconds
#
# Revision: 0
# Processed by: cddbd v1.5.2PL0 Copyright (c) Steve Scherf et al.
# Submitted via: audiograbber 1.83.01
#
DISCID=b90b2f0f
DTITLE=Glen Campbell - The Very best of (Studio Recordings)
DYEAR=1900
DGENRE=
TTITLE0=Rhinestone Cowboy
TTITLE1=By the time I get to Phoenix
TTITLE2=You'll never walk Alone
TTITLE3=Bridge Over Troubled Water
TTITLE4=Feelings
TTITLE5=You dont have to say you love me
TTITLE6=All the Way
TTITLE7=Blue Sky Shining
TTITLE8=Colleen
TTITLE9=Did'nt We
TTITLE10=Learing the Blues
TTITLE11=Pretend
TTITLE12=The Impossible Dream
TTITLE13=Without You
TTITLE14=Young At Heart
EXTD=
EXTT0=
EXTT1=
EXTT2=
EXTT3=
EXTT4=
EXTT5=
EXTT6=
EXTT7=
EXTT8=
EXTT9=
EXTT10=
EXTT11=
EXTT12=
EXTT13=
EXTT14=
PLAYORDER=
